<?xml version="1.0" encoding="UTF-8" standalone="no"?>
<!-- Created with Inkscape (http://www.inkscape.org/) -->

<svg
   xmlns:dc="http://purl.org/dc/elements/1.1/"
   xmlns:cc="http://creativecommons.org/ns#"
   xmlns:rdf="http://www.w3.org/1999/02/22-rdf-syntax-ns#"
   xmlns:svg="http://www.w3.org/2000/svg"
   xmlns="http://www.w3.org/2000/svg"
   xmlns:sodipodi="http://sodipodi.sourceforge.net/DTD/sodipodi-0.dtd"
   xmlns:inkscape="http://www.inkscape.org/namespaces/inkscape"
   version="1.1"
   id="svg2"
   width="1333.3333"
   height="1333.3333"
   viewBox="0 0 1333.3333 1333.3333"
   sodipodi:docname="BBFav.svg"
   inkscape:version="0.92.4 5da689c313, 2019-01-14">
  <metadata
     id="metadata8">
    <rdf:RDF>
      <cc:Work
         rdf:about="">
        <dc:format>image/svg+xml</dc:format>
        <dc:type
           rdf:resource="http://purl.org/dc/dcmitype/StillImage" />
        <dc:title></dc:title>
      </cc:Work>
    </rdf:RDF>
  </metadata>
  <defs
     id="defs6" />
  <sodipodi:namedview
     pagecolor="#ffffff"
     bordercolor="#666666"
     borderopacity="1"
     objecttolerance="10"
     gridtolerance="10"
     guidetolerance="10"
     inkscape:pageopacity="0"
     inkscape:pageshadow="2"
     inkscape:window-width="1920"
     inkscape:window-height="1009"
     id="namedview4"
     showgrid="true"
     inkscape:snap-text-baseline="false"
     inkscape:snap-center="false"
     inkscape:zoom="0.30900002"
     inkscape:cx="651.25591"
     inkscape:cy="124.30104"
     inkscape:window-x="0"
     inkscape:window-y="29"
     inkscape:window-maximized="1"
     inkscape:current-layer="svg2" />
  <g
     id="g3754">
    <path
       style="fill:#e6e6e6;fill-opacity:1;stroke-width:1.33333325"
       d="M 148.47545,1331.238 C 83.525822,1320.328 28.413802,1272.3147 8.1683582,1209.0033 c -8.76598935,-27.413 -8.15763469,13.0317 -8.15763469,-542.33665 0,-555.36838 -0.60835466,-514.92368 8.15763469,-542.33663 C 25.807815,69.168029 69.168029,25.807815 124.33002,8.1683582 151.74297,-0.59763115 111.29827,0.01072351 666.66665,0.01072351 c 555.36835,0 514.92365,-0.60835466 542.33665,8.15763469 55.162,17.6394568 98.5222,60.9996708 116.1616,116.1616618 8.766,27.41295 8.1577,-13.03175 8.1577,542.33663 0,555.36835 0.6083,514.92365 -8.1577,542.33665 -17.6394,55.162 -60.9996,98.5222 -116.1616,116.1616 -27.431,8.7719 13.2738,8.1708 -543.66998,8.0273 -421.42841,-0.1085 -507.81475,-0.4352 -516.85787,-1.9542 z m 427.52454,-128.5828 c 82.81947,-3.4086 143.84263,-15.7885 219.93706,-44.619 134.28509,-50.8776 235.60285,-122.8339 284.82025,-202.28049 28.1782,-45.48504 43.2627,-98.13266 43.2348,-150.897 -0.019,-36.53297 -10.0178,-69.83908 -30.1103,-100.30111 -8.6028,-13.0426 -31.192,-36.73823 -43.7049,-45.84558 -32.8539,-23.9123 -70.18515,-36.30317 -136.84359,-45.42072 -11.36667,-1.55473 -21.76651,-3.2473 -23.11076,-3.76128 -1.81299,-0.69321 1.62981,-2.77096 13.33333,-8.04676 32.1676,-14.50071 70.64876,-35.52027 99.58472,-54.39617 87.0612,-56.79281 137.7292,-122.85511 150.2088,-195.84618 3.407,-19.92733 3.6985,-51.64754 0.6353,-69.15436 -13.9849,-79.92861 -80.9918,-121.34363 -217.98472,-134.73003 -11.36667,-1.11071 -44.66667,-2.6916 -74,-3.51311 -29.33333,-0.82149 -53.45491,-1.59391 -53.60348,-1.71645 -0.14859,-0.12254 2.7056,-11.60125 6.34264,-25.50822 3.63703,-13.90698 6.4586,-26.001306 6.27015,-26.876292 -0.20886,-0.969698 -27.93551,10.390712 -71.00931,29.094552 l -70.66666,30.68544 -34,5.80713 c -77.23831,13.19216 -123.2294,23.77993 -172,39.59675 -84.47533,27.39623 -158.67511,71.40711 -216.73173,128.55229 -68.34861,67.27558 -106.98961,145.74463 -120.0829,243.85471 -2.92296,21.90219 -3.38381,83.6984 -0.78057,104.66666 2.21166,17.8142 9.6703,67.18621 10.23518,67.75108 0.23514,0.23513 32.62928,-14.46266 71.987,-32.66177 l 71.55948,-33.08931 -0.80292,-4 c -4.26572,-21.25082 -13.02748,-71.32565 -14.6626,-83.79907 -2.39985,-18.3071 -2.76456,-66.79654 -0.67844,-90.20092 9.26988,-103.99953 53.39719,-171.13178 149.7593,-227.83352 48.76891,-28.69677 103.58407,-46.72364 170.39197,-56.0362 23.80121,-3.31773 65.25535,-7.1256 66.29156,-6.08938 0.69525,0.69525 -132.73114,537.752 -152.03513,611.95909 -35.41449,136.13802 -62.3188,199.72152 -100.43369,237.35682 -30.56631,30.1817 -70.26697,45.6525 -138.68317,54.0429 l -22.66667,2.7798 -42,42.2436 -41.99999,42.2435 29.33333,0.8732 c 16.13333,0.4802 73.13333,1.5919 126.66666,2.4705 53.53333,0.8785 120.73333,2.0255 149.33333,2.5488 28.6,0.5233 57.7,1.0491 64.66667,1.1686 6.96666,0.1195 26.76666,-0.3632 44,-1.0725 z m 47.33333,-76.1303 c -33.57439,-2.5161 -207.21786,-20.6317 -208.31926,-21.7331 -0.24418,-0.2441 5.42777,-5.7678 12.60433,-12.2748 57.04628,-51.7239 87.86681,-81.2599 110.11372,-105.52444 63.69611,-69.47285 87.9737,-116.32645 113.81829,-219.65925 8.58748,-34.33477 24.33484,-94.3297 24.91064,-94.90549 1.00988,-1.00988 27.86026,-3.07294 50.20561,-3.85757 86.44796,-3.03552 155.01343,16.63859 194.95887,55.94129 22.28319,21.92465 35.47731,46.65892 42.59131,79.84355 3.92503,18.30902 4.25261,58.2516 0.65867,80.31155 -7.95162,48.80768 -25.37155,94.39495 -50.15464,131.25266 -43.13452,64.1503 -103.86779,99.5823 -188.73808,110.1106 -17.42525,2.1616 -76.60378,2.447 -102.64946,0.495 z m 65.93057,-504.78662 c -0.0381,-0.5894 23.81181,-97.30957 53,-214.93372 l 53.06942,-213.86208 30,0.84448 c 61.21131,1.72305 87.35827,6.76606 113.31031,21.85435 9.56138,5.55892 27.91242,22.91447 34.46236,32.59288 11.57453,17.10296 21.07405,41.86636 24.94812,65.03496 1.85988,11.12295 2.1627,18.6307 1.55698,38.603 -1.34393,44.31392 -9.9332,78.32809 -30.16636,119.46117 -14.40285,29.28033 -26.82506,47.14831 -48.076,69.15203 -38.56998,39.93626 -90.17369,65.51915 -152.16491,75.43682 -24.57563,3.93173 -79.80168,7.94976 -79.93992,5.81611 z"
       id="path3760"
       inkscape:connector-curvature="0" />
    <path
       style="fill:#aaaaaa;fill-opacity:1;stroke-width:1.33333325"
       d="m 151.33333,1331.2426 c -36.8989,-5.6344 -71.665633,-23.4124 -98.747942,-50.4947 C 25.041023,1253.2035 7.7284871,1219.0398 2.0975765,1181.1175 0.21852071,1168.4627 0,1114.8684 0,666.66665 0,218.46487 0.21852071,164.87057 2.0975765,152.21577 7.7284871,114.29354 25.041023,80.129753 52.585388,52.585388 80.129753,25.041023 114.29354,7.7284871 152.21577,2.0975765 164.87057,0.21852071 218.46487,0 666.66665,0 c 448.20175,0 501.79605,0.21852071 514.45085,2.0975765 37.9223,5.6309106 72.086,22.9434465 99.6304,50.4878115 27.5444,27.544365 44.8569,61.708152 50.4878,99.630382 1.8791,12.6548 2.0976,66.2491 2.0976,514.45088 0,448.20175 -0.2185,501.79605 -2.0976,514.45085 -5.6309,37.9223 -22.9434,72.086 -50.4878,99.6304 -27.5444,27.5444 -61.7081,44.8569 -99.6304,50.4878 -12.6676,1.881 -65.9507,2.0843 -515.9553,1.9685 -418.47473,-0.1077 -503.82208,-0.4335 -513.82887,-1.9616 z m 436.66666,-128.616 c 86.84895,-4.8301 156.45702,-21.5224 242.66666,-58.1924 49.04814,-20.8631 101.26901,-49.1712 137.03507,-74.2845 93.18728,-65.432 143.89688,-141.62252 154.93068,-232.78141 2.0914,-17.27808 1.6944,-49.6578 -0.7862,-64.13335 -9.7717,-57.02272 -48.2141,-107.21204 -102.0777,-133.26982 -23.12904,-11.18923 -58.88591,-20.46719 -102.43519,-26.57924 -10.63333,-1.49238 -21.41528,-3.06666 -23.95989,-3.4984 -4.32223,-0.73338 -2.5242,-1.81406 27.33333,-16.42843 39.76384,-19.46321 57.77725,-29.6226 86.62655,-48.85654 50.2981,-33.53392 84.5833,-66.13515 110.7503,-105.31047 33.227,-49.74504 46.0274,-109.02643 35.1152,-162.62538 -14.2155,-69.82464 -71.7832,-109.38308 -182.53216,-125.42953 -33.61798,-4.87093 -66.88362,-7.18703 -116.76349,-8.12959 l -45.43017,-0.85846 7.06005,-27.38355 c 3.88303,-15.06095 6.9266,-27.47646 6.7635,-27.590024 -0.1631,-0.113563 -32.69655,13.840594 -72.29655,31.009244 l -72,31.21571 -34.66666,5.84099 C 482.06595,182.5134 392.78352,215.57719 307.05853,279.87347 213.91697,349.73238 157.2389,439.26802 139.43852,544.66665 c -6.14676,36.39579 -7.90674,89.42323 -4.1445,124.87157 1.7315,16.31436 9.6821,70.67269 10.41366,71.19823 0.8195,0.58869 142.98999,-66.16283 143.37469,-67.31692 0.24798,-0.74395 -1.66556,-12.61769 -4.25231,-26.38609 -12.11816,-64.50079 -13.41316,-76.88124 -12.38119,-118.36679 1.29252,-51.95892 7.34372,-86.20237 21.61227,-122.30253 23.89297,-60.45049 72.93204,-109.2389 149.38169,-148.61817 40.19737,-20.70569 81.05206,-33.87816 131.22382,-42.30946 32.00697,-5.37875 85.33333,-10.69064 85.33333,-8.50014 0,1.21991 -148.8013,596.83666 -155.49173,622.39696 -7.37961,28.1933 -21.0807,74.72841 -28.46106,96.66667 -30.13579,89.57912 -61.48815,134.62822 -109.95867,157.99582 -25.33234,12.2126 -54.9461,19.7539 -99.42186,25.3181 l -22,2.7523 -41.33333,42.1514 c -22.73333,23.1832 -41.53333,42.6683 -41.77777,43.3002 -0.24446,0.6319 11.75554,1.1762 26.66666,1.2097 32.65328,0.073 194.53166,2.5167 253.1111,3.8203 68.11561,1.5159 120.32196,1.544 146.66667,0.079 z m 39.99999,-76.0786 c -43.2779,-3.2096 -211.99999,-21.1153 -211.99999,-22.4987 0,-0.459 7.05,-7.106 15.66667,-14.7709 44.19623,-39.3148 93.44557,-87.0294 114.85763,-111.27842 31.77163,-35.9812 48.47615,-59.84611 64.96797,-92.81642 16.50299,-32.99262 26.63343,-63.20525 43.76302,-130.51691 6.06514,-23.83333 13.33324,-52.13348 16.1513,-62.8892 l 5.12378,-19.55587 6.73481,-0.74397 c 3.70415,-0.40919 25.03481,-1.12685 47.40148,-1.59481 45.21576,-0.946 65.83902,0.57112 94.5109,6.95258 99.01197,22.03696 149.45491,88.41795 141.56683,186.29656 C 961.25404,931.25831 932.71584,999.92719 890.746,1046 c -38.9805,42.7912 -89.63237,68.3394 -156.07935,78.7245 -16.79572,2.625 -81.04757,3.7234 -106.66667,1.8235 z m 62.15448,-508.67134 c 0.53755,-2.13217 24.47863,-98.37667 53.20239,-213.87667 L 795.58186,194 l 25.20907,0.30976 c 28.81046,0.35401 54.53695,2.19968 71.76942,5.14888 58.52716,10.01645 95.71872,51.65555 105.56444,118.18835 4.19331,28.33624 0.39964,70.10303 -9.47828,104.353 -14.64516,50.77958 -45.70415,101.13698 -81.05344,131.41581 -50.42168,43.18925 -112.1,64.50422 -195.33787,67.50545 l -23.07811,0.83211 z"
       id="path3758"
       inkscape:connector-curvature="0" />
    <path
       style="fill:#6e6e6e;fill-opacity:1;stroke-width:1.33333325"
       d="m 155.33333,1331.3489 c -20.55219,-2.9138 -34.26782,-6.9565 -52.59216,-15.5016 -55.793538,-26.0179 -93.8696946,-79.524 -101.3912918,-142.479 -1.86484275,-15.6086 -1.86484275,-997.79473 0,-1013.40328 C 11.485893,75.127534 75.127534,11.485893 159.96502,1.3498782 c 15.60855,-1.86484275 997.79468,-1.86484275 1013.40328,0 84.8375,10.1360148 148.4791,73.7776558 158.6151,158.6151418 1.8648,15.60855 1.8648,997.79468 0,1013.40328 -10.136,84.8375 -73.7776,148.4791 -158.6151,158.6151 -18.1682,2.1707 -1002.57704,1.5571 -1018.03497,-0.6345 z m 465.33332,-130.4605 c 64.95301,-7.2174 114.76478,-19.0869 173.35221,-41.3077 133.76462,-50.7336 232.49094,-119.5764 283.56274,-197.73082 25.0475,-38.32965 38.5789,-74.81366 45.1927,-121.8499 2.5106,-17.85521 2.2192,-54.46951 -0.5441,-68.35987 -10.311,-51.83158 -41.3617,-95.96607 -87.0131,-123.67794 -27.8334,-16.89576 -60.93048,-26.66188 -119.30038,-35.20255 -12.87912,-1.88446 -24.27912,-3.46692 -25.33333,-3.51654 -1.05421,-0.0496 -0.41675,-0.75786 1.41659,-1.57384 1.83333,-0.81598 15.93333,-7.57706 31.33333,-15.02461 63.54644,-30.73155 112.66709,-63.62696 151.13989,-101.21636 20.0217,-19.56203 30.5213,-31.96257 43.4609,-51.32973 24.8778,-37.2354 37.3314,-74.77808 38.9545,-117.43188 2.3852,-62.68553 -19.5683,-106.26629 -68.1273,-135.24248 -50.0831,-29.88566 -131.31118,-44.67234 -245.76132,-44.73816 -18.51667,-0.0107 -33.66667,-0.3855 -33.66667,-0.83301 0,-0.44751 3.04543,-12.80208 6.7676,-27.45462 3.72219,-14.652531 6.55856,-26.850006 6.30308,-27.105494 -0.25549,-0.255488 -33.1509,13.659554 -73.10093,30.922324 -72.1706,31.18556 -72.73901,31.40288 -88.63641,33.88734 -162.76054,25.43634 -260.12603,59.52262 -344.98846,120.77558 -41.04865,29.62856 -77.62329,65.30957 -105.02118,102.45518 -63.68053,86.33703 -89.34775,196.44801 -73.33468,314.6019 2.85435,21.06106 7.62296,50.12117 8.34275,50.84095 0.37049,0.37049 143.81159,-65.66552 144.39022,-66.47297 0.11947,-0.16678 -1.49947,-9.30322 -3.59773,-20.30322 -12.48832,-65.46937 -15.17591,-89.83062 -13.97412,-126.66666 3.03741,-93.09966 25.93162,-152.78257 78.35707,-204.26903 16.3254,-16.033 26.996,-24.52074 50.51172,-40.17863 58.88271,-39.20693 117.11155,-60.01192 197.98108,-70.73805 22.16988,-2.94051 59.04672,-6.212 59.94109,-5.31763 0.88276,0.88275 -159.43032,640.00403 -167.18141,666.50333 -45.04664,154.00479 -81.53424,203.06039 -167.42634,225.09549 -18.88687,4.8453 -34.29712,7.5963 -60.66667,10.8303 l -19.33333,2.3711 -42.38264,43.1849 c -41.3871,42.1705 -42.2797,43.1925 -38,43.5102 2.41046,0.1789 53.28264,1.0292 113.04931,1.8895 59.76666,0.8603 125.46666,1.9637 145.99999,2.4519 65.78337,1.5643 176.20703,0.5692 197.33333,-1.7783 z m 27.33333,-73.6891 c -37.9006,-2.5742 -54.25315,-3.9851 -99.99999,-8.628 -84.82023,-8.6084 -131.35819,-13.9125 -130.98775,-14.9292 0.19008,-0.5217 6.49008,-6.4898 14,-13.2625 111.93463,-100.9465 154.44088,-149.64862 183.03332,-209.71296 16.4576,-34.57255 25.49732,-62.10371 42.46596,-129.33333 5.55276,-21.99999 12.39744,-48.69999 15.2104,-59.33333 l 5.11445,-19.33333 10.58181,-1.19225 c 17.35024,-1.95486 92.70836,-1.73811 107.24847,0.30846 57.67621,8.11816 98.30494,25.40003 127.43827,54.20724 10.20646,10.09221 21.95576,26.18077 28.24507,38.67655 25.69337,51.04834 20.80651,133.89523 -12.22991,207.33333 -14.50872,32.25202 -31.88449,57.74882 -55.45344,81.37092 -19.98883,20.0339 -35.74838,31.4867 -60.4585,43.9364 -27.92893,14.0714 -59.68765,23.3938 -95.54149,28.045 -11.51367,1.4937 -65.28168,2.756 -78.66667,1.847 z m 41.93114,-507.32594 c 0.37001,-1.03036 24.37324,-97.20973 53.3405,-213.73196 28.96727,-116.52222 52.89613,-212.08695 53.17527,-212.36608 0.83526,-0.83528 65.88256,2.18409 79.55309,3.6927 22.19849,2.44971 34.374,5.58949 51.53813,13.29052 25.39435,11.39368 46.6066,34.70195 59.27441,65.1314 21.88208,52.56305 15.17688,127.23473 -17.43024,194.11005 -21.5389,44.17508 -48.81913,76.30241 -86.06486,101.35673 -46.87344,31.53066 -97.98556,46.09093 -173.68824,49.47845 -17.19813,0.76957 -20.26602,0.61977 -19.69806,-0.96181 z"
       id="path3756"
       inkscape:connector-curvature="0" />
  </g>
  <path
     style="fill:#004369;fill-opacity:1;stroke-width:3.23624587"
     d="m 171.99349,1329.6998 c -39.94347,-1.9123 -41.32245,-2.2331 -69.57928,-16.1891 C 65.712249,1295.3836 38.88217,1269.1821 22.090082,1235.0684 -0.5857687,1189.0016 0.5214979,1220.1846 1.50387,655.31636 L 2.3886347,146.57273 9.6224261,125.3037 C 24.146758,82.598795 56.726476,43.733137 94.748878,23.75293 137.78448,1.1383606 99.41402,2.5597936 666.84086,2.5597936 c 566.24054,0 530.51554,-1.2807559 571.79364,20.4990054 28.5734,15.076326 59.9411,47.790029 73.7821,76.948091 6.2429,13.15167 12.9483,31.62943 14.9009,41.0617 2.4883,12.02065 3.55,169.64291 3.55,527.04094 0,561.63547 1.2315,526.55447 -19.9583,568.53137 -19.0434,37.7246 -60.3064,72.7164 -102.7856,87.164 l -21.269,7.2338 -487.05501,0.306 c -267.88024,0.1683 -505.39298,-0.5719 -527.8061,-1.6449 z m 476.85653,-131.3893 c 73.31948,-10.8297 140.44785,-32.1998 217.61623,-69.2775 173.70335,-83.4606 257.88995,-188.63647 257.99925,-322.32313 0.034,-41.36495 -8.1507,-70.67158 -28.1471,-100.78844 -33.7887,-50.88938 -80.5873,-77.39734 -159.796,-90.51258 -17.17165,-2.84327 -33.40567,-5.82644 -36.07557,-6.62932 -2.6699,-0.80285 15.53398,-11.9511 40.45307,-24.77391 51.04039,-26.26424 76.0532,-42.40754 112.5766,-72.65702 90.2763,-74.76877 125.2582,-173.96187 92.3812,-261.95167 -8.6767,-23.22168 -37.6252,-53.06036 -65.8863,-67.91216 -44.506,-23.38897 -109.81037,-35.68661 -205.6524,-38.72699 l -63.34462,-2.00948 6.09793,-25.74766 c 3.35385,-14.16121 5.48948,-26.356111 4.74582,-27.099767 -0.74366,-0.743657 -28.86615,10.481245 -62.4944,24.944227 -81.23879,34.93953 -79.32789,34.31963 -139.35811,45.20842 -128.30498,23.27304 -209.09012,51.67572 -282.62555,99.36633 -162.16139,105.16801 -229.08029,261.12101 -197.10335,459.34488 2.09914,13.01249 5.09425,23.6591 6.6558,23.6591 1.56155,0 34.88541,-14.78246 74.05302,-32.84987 55.5387,-25.61919 70.87097,-33.98919 69.6561,-38.02589 -3.80631,-12.64741 -14.50232,-82.1244 -16.49081,-107.11776 -2.62515,-32.9954 2.6717,-90.27533 11.56272,-125.03889 7.73702,-30.25146 23.7119,-62.73857 43.4884,-88.43961 44.81928,-58.24602 135.31319,-109.65143 225.36244,-128.01801 25.15994,-5.13166 100.5134,-14.55442 102.56074,-12.82496 2.35521,1.98956 -166.45264,667.70925 -179.04364,706.08598 -44.97421,137.07928 -87.32725,177.01808 -203.89017,192.26818 l -31.10675,4.0697 -40.23088,41.7591 c -22.12699,22.9675 -40.23089,43.0615 -40.23089,44.6534 0,3.2633 63.26109,4.4527 293.7106,5.5221 128.50565,0.5963 165.83254,-0.2094 192.55662,-4.1568 z"
     id="path3801"
     inkscape:connector-curvature="0" />
  <path
     style="fill:#004369;fill-opacity:1;stroke-width:3.23624587"
     d="m 594.62161,1122.2197 c -14.23948,-1.5324 -56.47249,-5.8665 -93.85113,-9.6314 -37.37864,-3.7649 -70.59856,-7.8773 -73.82205,-9.1387 -4.80017,-1.8783 1.64259,-9.2318 35.5987,-40.6307 52.51608,-48.5613 102.59295,-102.43618 124.00578,-133.41093 18.20274,-26.33119 37.55473,-65.52502 48.56991,-98.36926 6.44379,-19.2136 42.02305,-152.24983 42.02305,-157.13053 0,-1.14912 30.9466,-1.42901 68.77023,-0.62199 58.28352,1.24356 72.38682,2.53886 92.48747,8.49438 62.10145,18.39972 101.29485,52.63463 119.00659,103.9507 4.97285,14.40772 6.08392,26.43257 5.83097,63.10679 -0.27087,39.26244 -1.47534,49.19351 -9.02825,74.43365 -31.69987,105.93389 -91.68753,166.93679 -191.30649,194.54429 -22.66424,6.281 -125.76892,8.979 -168.28478,4.4037 z"
     id="path3803"
     inkscape:connector-curvature="0" />
  <path
     style="fill:#004369;fill-opacity:1;stroke-width:3.23624587"
     d="m 744.15541,407.64129 53.42368,-213.67786 29.58921,1.52761 c 93.37407,4.82064 127.85029,20.42946 152.48012,69.03409 38.03298,75.05445 13.55817,194.55684 -54.92975,268.20398 -49.8327,53.58663 -111.09204,79.48317 -204.37211,86.3955 l -29.61484,2.19453 z"
     id="path3805"
     inkscape:connector-curvature="0" />
  <path
     style="fill:#ffffff;fill-opacity:1;stroke-width:3.23624587"
     d="m 222.87915,1197.6529 -57.82663,-1.0709 40.02727,-41.1468 40.02728,-41.1467 40.45307,-6.7907 c 66.12716,-11.1003 94.13025,-23.3747 124.91757,-54.7543 24.74949,-25.2256 49.64209,-74.10742 70.87643,-139.18053 11.09175,-33.99093 179.61051,-695.7925 179.61051,-705.36074 0,-5.75451 -80.97997,2.89898 -120.62663,12.89012 -75.01789,18.90483 -139.09765,52.43487 -187.53588,98.12905 -50.19649,47.35282 -73.39372,100.85067 -80.18422,184.92221 -3.59807,44.54693 -1.31473,78.00197 9.23266,135.27475 l 6.13231,33.29877 -8.49293,4.33165 c -29.35899,14.97405 -130.6871,60.38259 -131.942,59.1277 -4.86139,-4.86139 -11.61595,-71.46142 -11.5499,-113.88203 0.0888,-56.99385 6.09878,-95.06712 22.45857,-142.27384 13.36831,-38.57469 19.09893,-50.29204 41.20763,-84.25696 54.58242,-83.85328 141.96639,-150.78484 249.11541,-190.80938 40.87437,-15.26825 115.48731,-34.16793 179.69796,-45.51806 47.29223,-8.35955 53.86119,-10.4866 119.74109,-38.77248 38.33712,-16.46024 70.14462,-29.545023 70.68336,-29.077296 0.53874,0.467726 -1.88502,12.032346 -5.38612,25.699146 -4.5965,17.94274 -5.31844,25.16674 -2.59763,25.99296 2.07239,0.62932 32.16605,1.92519 66.87478,2.87971 177.72889,4.88771 259.97269,47.02116 275.51729,141.1474 7.1576,43.34125 -5.14,99.70492 -30.9856,142.01593 -35.4563,58.0444 -100.3992,111.46261 -189.51551,155.88429 -22.24919,11.09049 -41.05987,20.69722 -41.80152,21.34822 -2.94741,2.58725 2.89091,4.13146 41.49534,10.97528 67.83159,12.02524 99.95009,25.66372 132.68269,56.34106 39.8368,37.3354 56.7467,78.07068 56.5109,136.13268 -0.5179,127.52863 -84.9033,232.68859 -251.9942,314.03189 -71.14372,34.6342 -126.12313,53.5745 -199.02912,68.5649 -19.9709,4.1063 -56.67213,5.091 -207.11973,5.5573 -100.56633,0.3116 -208.86986,0.085 -240.6745,-0.5043 z m 519.37679,-73.6296 c 87.70154,-15.3593 146.8527,-57.0024 187.18885,-131.78302 33.36045,-61.84812 46.85942,-138.62384 33.9801,-193.26283 -14.03576,-59.54498 -57.3321,-100.80071 -126.73475,-120.76158 -22.52521,-6.47845 -32.54722,-7.26531 -93.17463,-7.31531 l -67.93455,-0.056 -16.89068,64.72492 c -29.53838,113.19074 -46.4543,155.09449 -82.30459,203.88348 -9.15531,12.45955 -49.23816,54.88709 -89.07304,94.28344 l -72.42701,71.6297 13.81621,1.9531 c 7.59891,1.0742 48.76766,5.5646 91.48611,9.9786 42.71844,4.4141 82.76698,8.5688 88.99675,9.2326 31.04502,3.3084 108.16068,1.8555 133.07123,-2.5071 z M 772.01386,615.56199 C 861.50476,600.94468 927.61599,554.27442 966.47084,478.28792 1016.1816,381.0712 1011.3816,278.36914 954.74764,227.45027 928.12893,203.51778 891.13703,193.68743 827.22645,193.5624 l -32.76731,-0.0641 -53.3744,213.48072 c -29.35592,117.41438 -52.52349,214.33162 -51.48346,215.37162 2.59029,2.59032 47.78427,-1.13249 82.41258,-6.78864 z"
     id="path3807"
     inkscape:connector-curvature="0" />
</svg>
